<?xml version='1.0' encoding='utf-8'?>
<mlt LC_NUMERIC="C" producer="main_bin" version="7.2.0" root="/home/alex/Godot/Projetos/TopDownYoutube/videos/01">
 <profile frame_rate_num="30" sample_aspect_num="1" display_aspect_den="900" colorspace="709" progressive="1" description="1600x900 30.00fps" display_aspect_num="1600" frame_rate_den="1" width="1600" height="900" sample_aspect_den="1"/>
 <producer id="producer0" in="00:00:00.000" out="00:12:57.867">
  <property name="length">23337</property>
  <property name="eof">pause</property>
  <property name="resource">/home/alex/VÃ­deos/obs/2021-12-10 06-42-31.mkv</property>
  <property name="audio_index">1</property>
  <property name="video_index">0</property>
  <property name="mute_on_pause">0</property>
  <property name="mlt_service">avformat-novalidate</property>
  <property name="seekable">1</property>
  <property name="aspect_ratio">1</property>
  <property name="kdenlive:clipname"/>
  <property name="kdenlive:folderid">-1</property>
  <property name="kdenlive:id">2</property>
  <property name="kdenlive:file_size">34506290</property>
  <property name="kdenlive:file_hash">e77a0c661772dfc2056ecd7b41c27b4c</property>
  <property name="meta.media.nb_streams">2</property>
  <property name="meta.media.0.stream.type">video</property>
  <property name="meta.media.0.stream.frame_rate">30</property>
  <property name="meta.media.0.stream.sample_aspect_ratio">0</property>
  <property name="meta.media.0.codec.width">1600</property>
  <property name="meta.media.0.codec.height">900</property>
  <property name="meta.media.0.codec.rotate">0</property>
  <property name="meta.media.0.codec.pix_fmt">yuv420p</property>
  <property name="meta.media.0.codec.sample_aspect_ratio">1</property>
  <property name="meta.media.0.codec.colorspace">709</property>
  <property name="meta.media.0.codec.color_trc">1</property>
  <property name="meta.media.0.codec.name">h264</property>
  <property name="meta.media.0.codec.long_name">H.264 / AVC / MPEG-4 AVC / MPEG-4 part 10</property>
  <property name="meta.media.0.codec.bit_rate">0</property>
  <property name="meta.attr.0.stream.DURATION.markup">00:12:57.900000000</property>
  <property name="meta.media.1.stream.type">audio</property>
  <property name="meta.media.1.codec.sample_fmt">fltp</property>
  <property name="meta.media.1.codec.sample_rate">48000</property>
  <property name="meta.media.1.codec.channels">2</property>
  <property name="meta.media.1.codec.name">aac</property>
  <property name="meta.media.1.codec.long_name">AAC (Advanced Audio Coding)</property>
  <property name="meta.media.1.codec.bit_rate">0</property>
  <property name="meta.attr.1.stream.title.markup">simple_aac_recording</property>
  <property name="meta.attr.1.stream.DURATION.markup">00:12:57.792000000</property>
  <property name="meta.attr.ENCODER.markup">Lavf58.45.100</property>
  <property name="meta.media.sample_aspect_num">1</property>
  <property name="meta.media.sample_aspect_den">1</property>
  <property name="meta.media.frame_rate_num">30</property>
  <property name="meta.media.frame_rate_den">1</property>
  <property name="meta.media.colorspace">709</property>
  <property name="meta.media.color_trc">1</property>
  <property name="meta.media.has_b_frames">2</property>
  <property name="meta.media.width">1600</property>
  <property name="meta.media.height">900</property>
  <property name="meta.media.color_range">mpeg</property>
  <property name="meta.media.top_field_first">0</property>
  <property name="meta.media.progressive">1</property>
  <property name="kdenlive:audio_max1">199</property>
 </producer>
 <producer id="producer1" in="00:00:00.000" out="00:00:05.000">
  <property name="length">151</property>
  <property name="eof">pause</property>
  <property name="resource">introducao.mp4</property>
  <property name="audio_index">1</property>
  <property name="video_index">0</property>
  <property name="mute_on_pause">0</property>
  <property name="mlt_service">avformat-novalidate</property>
  <property name="meta.media.nb_streams">2</property>
  <property name="meta.media.0.stream.type">video</property>
  <property name="meta.media.0.stream.frame_rate">25</property>
  <property name="meta.media.0.stream.sample_aspect_ratio">1</property>
  <property name="meta.media.0.codec.width">1920</property>
  <property name="meta.media.0.codec.height">1080</property>
  <property name="meta.media.0.codec.rotate">0</property>
  <property name="meta.media.0.codec.pix_fmt">yuv420p</property>
  <property name="meta.media.0.codec.sample_aspect_ratio">1</property>
  <property name="meta.media.0.codec.colorspace">709</property>
  <property name="meta.media.0.codec.color_trc">1</property>
  <property name="meta.media.0.codec.name">h264</property>
  <property name="meta.media.0.codec.long_name">H.264 / AVC / MPEG-4 AVC / MPEG-4 part 10</property>
  <property name="meta.media.0.codec.bit_rate">550179</property>
  <property name="meta.attr.0.stream.handler_name.markup">VideoHandler</property>
  <property name="meta.media.1.stream.type">audio</property>
  <property name="meta.media.1.codec.sample_fmt">fltp</property>
  <property name="meta.media.1.codec.sample_rate">48000</property>
  <property name="meta.media.1.codec.channels">2</property>
  <property name="meta.media.1.codec.name">aac</property>
  <property name="meta.media.1.codec.long_name">AAC (Advanced Audio Coding)</property>
  <property name="meta.media.1.codec.bit_rate">23637</property>
  <property name="meta.attr.1.stream.handler_name.markup">SoundHandler</property>
  <property name="meta.attr.major_brand.markup">isom</property>
  <property name="meta.attr.minor_version.markup">512</property>
  <property name="meta.attr.compatible_brands.markup">isomiso2avc1mp41</property>
  <property name="meta.attr.encoder.markup">Lavf58.29.100</property>
  <property name="seekable">1</property>
  <property name="meta.media.sample_aspect_num">1</property>
  <property name="meta.media.sample_aspect_den">1</property>
  <property name="aspect_ratio">1</property>
  <property name="kdenlive:clipname"/>
  <property name="kdenlive:folderid">-1</property>
  <property name="meta.media.frame_rate_num">25</property>
  <property name="meta.media.frame_rate_den">1</property>
  <property name="meta.media.colorspace">709</property>
  <property name="meta.media.color_trc">1</property>
  <property name="meta.media.has_b_frames">2</property>
  <property name="meta.media.width">1920</property>
  <property name="meta.media.height">1080</property>
  <property name="meta.media.color_range">mpeg</property>
  <property name="kdenlive:file_size">363706</property>
  <property name="kdenlive:id">3</property>
  <property name="kdenlive:file_hash">b9145557863b8d60094434d669dab2cb</property>
  <property name="kdenlive:audio_max1">185</property>
  <property name="meta.media.top_field_first">0</property>
  <property name="meta.media.progressive">1</property>
 </producer>
 <producer id="producer2" in="00:00:00.000" out="00:09:49.933">
  <property name="length">17699</property>
  <property name="eof">pause</property>
  <property name="resource">/home/alex/Godot/Projetos/TutorialEndlessRunner/Videos/01/Tutorial Godot Game Engine Endless Runner.mp4</property>
  <property name="meta.media.nb_streams">2</property>
  <property name="meta.media.0.stream.type">video</property>
  <property name="meta.media.0.stream.frame_rate">30</property>
  <property name="meta.media.0.stream.sample_aspect_ratio">1</property>
  <property name="meta.media.0.codec.width">1600</property>
  <property name="meta.media.0.codec.height">900</property>
  <property name="meta.media.0.codec.rotate">0</property>
  <property name="meta.media.0.codec.pix_fmt">yuv420p</property>
  <property name="meta.media.0.codec.sample_aspect_ratio">1</property>
  <property name="meta.media.0.codec.colorspace">709</property>
  <property name="meta.media.0.codec.color_trc">1</property>
  <property name="meta.media.0.codec.name">h264</property>
  <property name="meta.media.0.codec.long_name">H.264 / AVC / MPEG-4 AVC / MPEG-4 part 10</property>
  <property name="meta.media.0.codec.bit_rate">1152878</property>
  <property name="meta.attr.0.stream.handler_name.markup">VideoHandler</property>
  <property name="meta.media.1.stream.type">audio</property>
  <property name="meta.media.1.codec.sample_fmt">fltp</property>
  <property name="meta.media.1.codec.sample_rate">48000</property>
  <property name="meta.media.1.codec.channels">2</property>
  <property name="meta.media.1.codec.name">aac</property>
  <property name="meta.media.1.codec.long_name">AAC (Advanced Audio Coding)</property>
  <property name="meta.media.1.codec.bit_rate">240218</property>
  <property name="meta.attr.1.stream.handler_name.markup">SoundHandler</property>
  <property name="meta.attr.major_brand.markup">isom</property>
  <property name="meta.attr.minor_version.markup">512</property>
  <property name="meta.attr.compatible_brands.markup">isomiso2avc1mp41</property>
  <property name="meta.attr.encoder.markup">Lavf58.29.100</property>
  <property name="seekable">1</property>
  <property name="meta.media.sample_aspect_num">1</property>
  <property name="meta.media.sample_aspect_den">1</property>
  <property name="aspect_ratio">1</property>
  <property name="audio_index">1</property>
  <property name="video_index">0</property>
  <property name="mute_on_pause">0</property>
  <property name="mlt_service">avformat-novalidate</property>
  <property name="kdenlive:clipname"/>
  <property name="kdenlive:folderid">-1</property>
  <property name="meta.media.frame_rate_num">30</property>
  <property name="meta.media.frame_rate_den">1</property>
  <property name="meta.media.colorspace">709</property>
  <property name="meta.media.color_trc">1</property>
  <property name="meta.media.has_b_frames">2</property>
  <property name="meta.media.width">1600</property>
  <property name="meta.media.height">900</property>
  <property name="meta.media.color_range">mpeg</property>
  <property name="kdenlive:id">4</property>
  <property name="kdenlive:file_size">103346923</property>
  <property name="kdenlive:file_hash">b91a4fd51280ce2d4419a74756b18ee1</property>
  <property name="meta.media.top_field_first">0</property>
  <property name="meta.media.progressive">1</property>
  <property name="kdenlive:audio_max1">187</property>
 </producer>
 <playlist id="main_bin">
  <property name="kdenlive:docproperties.activeTrack">2</property>
  <property name="kdenlive:docproperties.audioChannels">2</property>
  <property name="kdenlive:docproperties.audioTarget">-1</property>
  <property name="kdenlive:docproperties.disablepreview">0</property>
  <property name="kdenlive:docproperties.documentid">1639131010032</property>
  <property name="kdenlive:docproperties.enableTimelineZone">0</property>
  <property name="kdenlive:docproperties.enableexternalproxy">0</property>
  <property name="kdenlive:docproperties.enableproxy">0</property>
  <property name="kdenlive:docproperties.externalproxyparams">../Sub;;S03.MP4;../Clip;;.MXF</property>
  <property name="kdenlive:docproperties.generateimageproxy">0</property>
  <property name="kdenlive:docproperties.generateproxy">0</property>
  <property name="kdenlive:docproperties.groups">[
    {
        "children": [
            {
                "data": "2:8175",
                "leaf": "clip",
                "type": "Leaf"
            },
            {
                "data": "1:8175",
                "leaf": "clip",
                "type": "Leaf"
            }
        ],
        "type": "AVSplit"
    },
    {
        "children": [
            {
                "data": "2:5525",
                "leaf": "clip",
                "type": "Leaf"
            },
            {
                "data": "1:5525",
                "leaf": "clip",
                "type": "Leaf"
            }
        ],
        "type": "AVSplit"
    },
    {
        "children": [
            {
                "data": "2:5348",
                "leaf": "clip",
                "type": "Leaf"
            },
            {
                "data": "1:5348",
                "leaf": "clip",
                "type": "Leaf"
            }
        ],
        "type": "AVSplit"
    },
    {
        "children": [
            {
                "data": "2:5273",
                "leaf": "clip",
                "type": "Leaf"
            },
            {
                "data": "1:5273",
                "leaf": "clip",
                "type": "Leaf"
            }
        ],
        "type": "AVSplit"
    },
    {
        "children": [
            {
                "data": "2:4452",
                "leaf": "clip",
                "type": "Leaf"
            },
            {
                "data": "1:4452",
                "leaf": "clip",
                "type": "Leaf"
            }
        ],
        "type": "AVSplit"
    },
    {
        "children": [
            {
                "data": "2:4155",
                "leaf": "clip",
                "type": "Leaf"
            },
            {
                "data": "1:4155",
                "leaf": "clip",
                "type": "Leaf"
            }
        ],
        "type": "AVSplit"
    },
    {
        "children": [
            {
                "data": "2:4106",
                "leaf": "clip",
                "type": "Leaf"
            },
            {
                "data": "1:4106",
                "leaf": "clip",
                "type": "Leaf"
            }
        ],
        "type": "AVSplit"
    },
    {
        "children": [
            {
                "data": "2:1353",
                "leaf": "clip",
                "type": "Leaf"
            },
            {
                "data": "1:1353",
                "leaf": "clip",
                "type": "Leaf"
            }
        ],
        "type": "AVSplit"
    },
    {
        "children": [
            {
                "data": "2:1206",
                "leaf": "clip",
                "type": "Leaf"
            },
            {
                "data": "1:1206",
                "leaf": "clip",
                "type": "Leaf"
            }
        ],
        "type": "AVSplit"
    },
    {
        "children": [
            {
                "data": "1:0",
                "leaf": "clip",
                "type": "Leaf"
            },
            {
                "data": "2:0",
                "leaf": "clip",
                "type": "Leaf"
            }
        ],
        "type": "AVSplit"
    },
    {
        "children": [
            {
                "data": "2:15517",
                "leaf": "clip",
                "type": "Leaf"
            },
            {
                "data": "1:15517",
                "leaf": "clip",
                "type": "Leaf"
            }
        ],
        "type": "AVSplit"
    },
    {
        "children": [
            {
                "data": "2:1102",
                "leaf": "clip",
                "type": "Leaf"
            },
            {
                "data": "1:1102",
                "leaf": "clip",
                "type": "Leaf"
            }
        ],
        "type": "AVSplit"
    },
    {
        "children": [
            {
                "data": "2:2681",
                "leaf": "clip",
                "type": "Leaf"
            },
            {
                "data": "1:2681",
                "leaf": "clip",
                "type": "Leaf"
            }
        ],
        "type": "AVSplit"
    },
    {
        "children": [
            {
                "data": "2:90",
                "leaf": "clip",
                "type": "Leaf"
            },
            {
                "data": "1:90",
                "leaf": "clip",
                "type": "Leaf"
            }
        ],
        "type": "AVSplit"
    },
    {
        "children": [
            {
                "data": "2:586",
                "leaf": "clip",
                "type": "Leaf"
            },
            {
                "data": "1:586",
                "leaf": "clip",
                "type": "Leaf"
            }
        ],
        "type": "AVSplit"
    },
    {
        "children": [
            {
                "data": "1:8728",
                "leaf": "clip",
                "type": "Leaf"
            },
            {
                "data": "2:8728",
                "leaf": "clip",
                "type": "Leaf"
            }
        ],
        "type": "AVSplit"
    },
    {
        "children": [
            {
                "data": "2:13601",
                "leaf": "clip",
                "type": "Leaf"
            },
            {
                "data": "1:13601",
                "leaf": "clip",
                "type": "Leaf"
            }
        ],
        "type": "AVSplit"
    },
    {
        "children": [
            {
                "data": "1:9181",
                "leaf": "clip",
                "type": "Leaf"
            },
            {
                "data": "2:9181",
                "leaf": "clip",
                "type": "Leaf"
            }
        ],
        "type": "AVSplit"
    },
    {
        "children": [
            {
                "data": "2:15484",
                "leaf": "clip",
                "type": "Leaf"
            },
            {
                "data": "1:15484",
                "leaf": "clip",
                "type": "Leaf"
            }
        ],
        "type": "AVSplit"
    },
    {
        "children": [
            {
                "data": "1:353",
                "leaf": "clip",
                "type": "Leaf"
            },
            {
                "data": "2:353",
                "leaf": "clip",
                "type": "Leaf"
            }
        ],
        "type": "AVSplit"
    },
    {
        "children": [
            {
                "data": "2:4228",
                "leaf": "clip",
                "type": "Leaf"
            },
            {
                "data": "1:4228",
                "leaf": "clip",
                "type": "Leaf"
            }
        ],
        "type": "AVSplit"
    },
    {
        "children": [
            {
                "data": "1:11189",
                "leaf": "clip",
                "type": "Leaf"
            },
            {
                "data": "2:11189",
                "leaf": "clip",
                "type": "Leaf"
            }
        ],
        "type": "AVSplit"
    },
    {
        "children": [
            {
                "data": "2:558",
                "leaf": "clip",
                "type": "Leaf"
            },
            {
                "data": "1:558",
                "leaf": "clip",
                "type": "Leaf"
            }
        ],
        "type": "AVSplit"
    },
    {
        "children": [
            {
                "data": "2:12659",
                "leaf": "clip",
                "type": "Leaf"
            },
            {
                "data": "1:12659",
                "leaf": "clip",
                "type": "Leaf"
            }
        ],
        "type": "AVSplit"
    },
    {
        "children": [
            {
                "data": "2:13288",
                "leaf": "clip",
                "type": "Leaf"
            },
            {
                "data": "1:13288",
                "leaf": "clip",
                "type": "Leaf"
            }
        ],
        "type": "AVSplit"
    },
    {
        "children": [
            {
                "data": "2:13496",
                "leaf": "clip",
                "type": "Leaf"
            },
            {
                "data": "1:13496",
                "leaf": "clip",
                "type": "Leaf"
            }
        ],
        "type": "AVSplit"
    },
    {
        "children": [
            {
                "data": "2:8398",
                "leaf": "clip",
                "type": "Leaf"
            },
            {
                "data": "1:8398",
                "leaf": "clip",
                "type": "Leaf"
            }
        ],
        "type": "AVSplit"
    },
    {
        "children": [
            {
                "data": "1:11259",
                "leaf": "clip",
                "type": "Leaf"
            },
            {
                "data": "2:11259",
                "leaf": "clip",
                "type": "Leaf"
            }
        ],
        "type": "AVSplit"
    },
    {
        "children": [
            {
                "data": "2:15611",
                "leaf": "clip",
                "type": "Leaf"
            },
            {
                "data": "1:15611",
                "leaf": "clip",
                "type": "Leaf"
            }
        ],
        "type": "AVSplit"
    },
    {
        "children": [
            {
                "data": "2:15744",
                "leaf": "clip",
                "type": "Leaf"
            },
            {
                "data": "1:15744",
                "leaf": "clip",
                "type": "Leaf"
            }
        ],
        "type": "AVSplit"
    },
    {
        "children": [
            {
                "data": "1:12297",
                "leaf": "clip",
                "type": "Leaf"
            },
            {
                "data": "2:12297",
                "leaf": "clip",
                "type": "Leaf"
            }
        ],
        "type": "AVSplit"
    },
    {
        "children": [
            {
                "data": "2:987",
                "leaf": "clip",
                "type": "Leaf"
            },
            {
                "data": "1:987",
                "leaf": "clip",
                "type": "Leaf"
            }
        ],
        "type": "AVSplit"
    },
    {
        "children": [
            {
                "data": "1:7943",
                "leaf": "clip",
                "type": "Leaf"
            },
            {
                "data": "2:7943",
                "leaf": "clip",
                "type": "Leaf"
            }
        ],
        "type": "AVSplit"
    },
    {
        "children": [
            {
                "data": "1:11674",
                "leaf": "clip",
                "type": "Leaf"
            },
            {
                "data": "2:11674",
                "leaf": "clip",
                "type": "Leaf"
            }
        ],
        "type": "AVSplit"
    },
    {
        "children": [
            {
                "data": "2:817",
                "leaf": "clip",
                "type": "Leaf"
            },
            {
                "data": "1:817",
                "leaf": "clip",
                "type": "Leaf"
            }
        ],
        "type": "AVSplit"
    },
    {
        "children": [
            {
                "data": "2:7910",
                "leaf": "clip",
                "type": "Leaf"
            },
            {
                "data": "1:7910",
                "leaf": "clip",
                "type": "Leaf"
            }
        ],
        "type": "AVSplit"
    },
    {
        "children": [
            {
                "data": "1:11345",
                "leaf": "clip",
                "type": "Leaf"
            },
            {
                "data": "2:11345",
                "leaf": "clip",
                "type": "Leaf"
            }
        ],
        "type": "AVSplit"
    },
    {
        "children": [
            {
                "data": "2:771",
                "leaf": "clip",
                "type": "Leaf"
            },
            {
                "data": "1:771",
                "leaf": "clip",
                "type": "Leaf"
            }
        ],
        "type": "AVSplit"
    },
    {
        "children": [
            {
                "data": "2:533",
                "leaf": "clip",
                "type": "Leaf"
            },
            {
                "data": "1:533",
                "leaf": "clip",
                "type": "Leaf"
            }
        ],
        "type": "AVSplit"
    },
    {
        "children": [
            {
                "data": "1:11131",
                "leaf": "clip",
                "type": "Leaf"
            },
            {
                "data": "2:11131",
                "leaf": "clip",
                "type": "Leaf"
            }
        ],
        "type": "AVSplit"
    },
    {
        "children": [
            {
                "data": "2:485",
                "leaf": "clip",
                "type": "Leaf"
            },
            {
                "data": "1:485",
                "leaf": "clip",
                "type": "Leaf"
            }
        ],
        "type": "AVSplit"
    },
    {
        "children": [
            {
                "data": "1:12234",
                "leaf": "clip",
                "type": "Leaf"
            },
            {
                "data": "2:12234",
                "leaf": "clip",
                "type": "Leaf"
            }
        ],
        "type": "AVSplit"
    },
    {
        "children": [
            {
                "data": "2:858",
                "leaf": "clip",
                "type": "Leaf"
            },
            {
                "data": "1:858",
                "leaf": "clip",
                "type": "Leaf"
            }
        ],
        "type": "AVSplit"
    },
    {
        "children": [
            {
                "data": "1:7836",
                "leaf": "clip",
                "type": "Leaf"
            },
            {
                "data": "2:7836",
                "leaf": "clip",
                "type": "Leaf"
            }
        ],
        "type": "AVSplit"
    }
]
</property>
  <property name="kdenlive:docproperties.kdenliveversion">21.08.3</property>
  <property name="kdenlive:docproperties.position">15842</property>
  <property name="kdenlive:docproperties.previewextension"/>
  <property name="kdenlive:docproperties.previewparameters"/>
  <property name="kdenlive:docproperties.profile">/home/alex/.local/share/kdenlive/profiles/customprofile1</property>
  <property name="kdenlive:docproperties.proxyextension"/>
  <property name="kdenlive:docproperties.proxyimageminsize">2000</property>
  <property name="kdenlive:docproperties.proxyimagesize">800</property>
  <property name="kdenlive:docproperties.proxyminsize">1000</property>
  <property name="kdenlive:docproperties.proxyparams"/>
  <property name="kdenlive:docproperties.proxyresize">640</property>
  <property name="kdenlive:docproperties.scrollPos">8708</property>
  <property name="kdenlive:docproperties.seekOffset">30000</property>
  <property name="kdenlive:docproperties.version">1.04</property>
  <property name="kdenlive:docproperties.verticalzoom">1</property>
  <property name="kdenlive:docproperties.videoTarget">-1</property>
  <property name="kdenlive:docproperties.zonein">0</property>
  <property name="kdenlive:docproperties.zoneout">75</property>
  <property name="kdenlive:docproperties.zoom">8</property>
  <property name="kdenlive:expandedFolders"/>
  <property name="kdenlive:documentnotes"/>
  <property name="kdenlive:docproperties.renderaudioquality">256</property>
  <property name="kdenlive:docproperties.rendercategory">Generic (HD for web, mobile devices...)</property>
  <property name="kdenlive:docproperties.renderendguide">-1</property>
  <property name="kdenlive:docproperties.renderexportaudio">0</property>
  <property name="kdenlive:docproperties.renderfield">0</property>
  <property name="kdenlive:docproperties.renderguide">0</property>
  <property name="kdenlive:docproperties.renderplay">0</property>
  <property name="kdenlive:docproperties.renderprofile">MP4-H264/AAC</property>
  <property name="kdenlive:docproperties.renderquality">15</property>
  <property name="kdenlive:docproperties.renderratio">1</property>
  <property name="kdenlive:docproperties.renderrescale">0</property>
  <property name="kdenlive:docproperties.renderrescaleheight">450</property>
  <property name="kdenlive:docproperties.renderrescalewidth">800</property>
  <property name="kdenlive:docproperties.renderscanning">0</property>
  <property name="kdenlive:docproperties.renderspeed">2</property>
  <property name="kdenlive:docproperties.renderstartguide">-1</property>
  <property name="kdenlive:docproperties.rendertcoverlay">0</property>
  <property name="kdenlive:docproperties.rendertctype">0</property>
  <property name="kdenlive:docproperties.rendertwopass">0</property>
  <property name="kdenlive:docproperties.renderurl">Tutorial Godot Game Engine Top Down Shooter.mp4</property>
  <property name="kdenlive:docproperties.renderzone">0</property>
  <property name="xml_retain">1</property>
  <entry producer="producer0" in="00:00:00.000" out="00:12:57.867"/>
  <entry producer="producer1" in="00:00:00.000" out="00:00:05.000"/>
  <entry producer="producer2" in="00:00:00.000" out="00:09:49.933"/>
 </playlist>
 <producer id="black_track" in="00:00:00.000" out="00:25:28.067">
  <property name="length">2147483647</property>
  <property name="eof">continue</property>
  <property name="resource">black</property>
  <property name="aspect_ratio">1</property>
  <property name="mlt_service">color</property>
  <property name="mlt_image_format">rgb24a</property>
  <property name="set.test_audio">0</property>
 </producer>
 <playlist id="playlist0">
  <property name="kdenlive:audio_track">1</property>
 </playlist>
 <playlist id="playlist1">
  <property name="kdenlive:audio_track">1</property>
 </playlist>
 <tractor id="tractor0" in="00:00:00.000">
  <property name="kdenlive:audio_track">1</property>
  <property name="kdenlive:trackheight">69</property>
  <property name="kdenlive:timeline_active">1</property>
  <property name="kdenlive:collapsed">0</property>
  <property name="kdenlive:thumbs_format"/>
  <property name="kdenlive:audio_rec"/>
  <track hide="video" producer="playlist0"/>
  <track hide="video" producer="playlist1"/>
  <filter id="filter0">
   <property name="window">75</property>
   <property name="max_gain">20dB</property>
   <property name="mlt_service">volume</property>
   <property name="internal_added">237</property>
   <property name="disable">1</property>
  </filter>
  <filter id="filter1">
   <property name="channel">-1</property>
   <property name="mlt_service">panner</property>
   <property name="internal_added">237</property>
   <property name="start">0.5</property>
   <property name="disable">1</property>
  </filter>
  <filter id="filter2">
   <property name="iec_scale">0</property>
   <property name="mlt_service">audiolevel</property>
   <property name="disable">1</property>
  </filter>
 </tractor>
 <producer id="producer3" in="00:00:00.000" out="00:00:05.000">
  <property name="length">151</property>
  <property name="eof">pause</property>
  <property name="resource">introducao.mp4</property>
  <property name="audio_index">1</property>
  <property name="video_index">0</property>
  <property name="mute_on_pause">0</property>
  <property name="mlt_service">avformat-novalidate</property>
  <property name="seekable">1</property>
  <property name="aspect_ratio">1</property>
  <property name="kdenlive:clipname"/>
  <property name="kdenlive:folderid">-1</property>
  <property name="kdenlive:file_size">363706</property>
  <property name="kdenlive:id">3</property>
  <property name="kdenlive:file_hash">b9145557863b8d60094434d669dab2cb</property>
  <property name="kdenlive:audio_max1">185</property>
  <property name="xml">was here</property>
  <property name="meta.media.nb_streams">2</property>
  <property name="meta.media.0.stream.type">video</property>
  <property name="meta.media.0.stream.frame_rate">25</property>
  <property name="meta.media.0.stream.sample_aspect_ratio">1</property>
  <property name="meta.media.0.codec.width">1920</property>
  <property name="meta.media.0.codec.height">1080</property>
  <property name="meta.media.0.codec.rotate">0</property>
  <property name="meta.media.0.codec.pix_fmt">yuv420p</property>
  <property name="meta.media.0.codec.sample_aspect_ratio">1</property>
  <property name="meta.media.0.codec.colorspace">709</property>
  <property name="meta.media.0.codec.color_trc">1</property>
  <property name="meta.media.0.codec.name">h264</property>
  <property name="meta.media.0.codec.long_name">H.264 / AVC / MPEG-4 AVC / MPEG-4 part 10</property>
  <property name="meta.media.0.codec.bit_rate">550179</property>
  <property name="meta.attr.0.stream.handler_name.markup">VideoHandler</property>
  <property name="meta.media.1.stream.type">audio</property>
  <property name="meta.media.1.codec.sample_fmt">fltp</property>
  <property name="meta.media.1.codec.sample_rate">48000</property>
  <property name="meta.media.1.codec.channels">2</property>
  <property name="meta.media.1.codec.name">aac</property>
  <property name="meta.media.1.codec.long_name">AAC (Advanced Audio Coding)</property>
  <property name="meta.media.1.codec.bit_rate">23637</property>
  <property name="meta.attr.1.stream.handler_name.markup">SoundHandler</property>
  <property name="meta.attr.major_brand.markup">isom</property>
  <property name="meta.attr.minor_version.markup">512</property>
  <property name="meta.attr.compatible_brands.markup">isomiso2avc1mp41</property>
  <property name="meta.attr.encoder.markup">Lavf58.29.100</property>
  <property name="meta.media.sample_aspect_num">1</property>
  <property name="meta.media.sample_aspect_den">1</property>
  <property name="meta.media.frame_rate_num">25</property>
  <property name="meta.media.frame_rate_den">1</property>
  <property name="meta.media.colorspace">709</property>
  <property name="meta.media.color_trc">1</property>
  <property name="meta.media.has_b_frames">2</property>
  <property name="meta.media.width">1920</property>
  <property name="meta.media.height">1080</property>
  <property name="meta.media.color_range">mpeg</property>
  <property name="meta.media.top_field_first">0</property>
  <property name="meta.media.progressive">1</property>
  <property name="set.test_audio">0</property>
  <property name="set.test_image">1</property>
 </producer>
 <producer id="producer4" in="00:00:00.000" out="00:12:57.867">
  <property name="length">23337</property>
  <property name="eof">pause</property>
  <property name="resource">/home/alex/VÃ­deos/obs/2021-12-10 06-42-31.mkv</property>
  <property name="audio_index">1</property>
  <property name="video_index">0</property>
  <property name="mute_on_pause">0</property>
  <property name="mlt_service">avformat-novalidate</property>
  <property name="seekable">1</property>
  <property name="aspect_ratio">1</property>
  <property name="kdenlive:clipname"/>
  <property name="kdenlive:folderid">-1</property>
  <property name="kdenlive:id">2</property>
  <property name="kdenlive:file_size">34506290</property>
  <property name="kdenlive:file_hash">e77a0c661772dfc2056ecd7b41c27b4c</property>
  <property name="xml">was here</property>
  <property name="meta.media.nb_streams">2</property>
  <property name="meta.media.0.stream.type">video</property>
  <property name="meta.media.0.stream.frame_rate">30</property>
  <property name="meta.media.0.stream.sample_aspect_ratio">0</property>
  <property name="meta.media.0.codec.width">1600</property>
  <property name="meta.media.0.codec.height">900</property>
  <property name="meta.media.0.codec.rotate">0</property>
  <property name="meta.media.0.codec.pix_fmt">yuv420p</property>
  <property name="meta.media.0.codec.sample_aspect_ratio">1</property>
  <property name="meta.media.0.codec.colorspace">709</property>
  <property name="meta.media.0.codec.color_trc">1</property>
  <property name="meta.media.0.codec.name">h264</property>
  <property name="meta.media.0.codec.long_name">H.264 / AVC / MPEG-4 AVC / MPEG-4 part 10</property>
  <property name="meta.media.0.codec.bit_rate">0</property>
  <property name="meta.attr.0.stream.DURATION.markup">00:12:57.900000000</property>
  <property name="meta.media.1.stream.type">audio</property>
  <property name="meta.media.1.codec.sample_fmt">fltp</property>
  <property name="meta.media.1.codec.sample_rate">48000</property>
  <property name="meta.media.1.codec.channels">2</property>
  <property name="meta.media.1.codec.name">aac</property>
  <property name="meta.media.1.codec.long_name">AAC (Advanced Audio Coding)</property>
  <property name="meta.media.1.codec.bit_rate">0</property>
  <property name="meta.attr.1.stream.title.markup">simple_aac_recording</property>
  <property name="meta.attr.1.stream.DURATION.markup">00:12:57.792000000</property>
  <property name="meta.attr.ENCODER.markup">Lavf58.45.100</property>
  <property name="meta.media.sample_aspect_num">1</property>
  <property name="meta.media.sample_aspect_den">1</property>
  <property name="meta.media.frame_rate_num">30</property>
  <property name="meta.media.frame_rate_den">1</property>
  <property name="meta.media.colorspace">709</property>
  <property name="meta.media.color_trc">1</property>
  <property name="meta.media.has_b_frames">2</property>
  <property name="meta.media.width">1600</property>
  <property name="meta.media.height">900</property>
  <property name="meta.media.color_range">mpeg</property>
  <property name="meta.media.top_field_first">0</property>
  <property name="meta.media.progressive">1</property>
  <property name="set.test_audio">0</property>
  <property name="set.test_image">1</property>
 </producer>
 <producer id="producer5" in="00:00:00.000" out="00:09:49.933">
  <property name="length">17699</property>
  <property name="eof">pause</property>
  <property name="resource">/home/alex/Godot/Projetos/TutorialEndlessRunner/Videos/01/Tutorial Godot Game Engine Endless Runner.mp4</property>
  <property name="audio_index">1</property>
  <property name="video_index">0</property>
  <property name="mute_on_pause">0</property>
  <property name="mlt_service">avformat-novalidate</property>
  <property name="seekable">1</property>
  <property name="aspect_ratio">1</property>
  <property name="kdenlive:clipname"/>
  <property name="kdenlive:folderid">-1</property>
  <property name="kdenlive:id">4</property>
  <property name="kdenlive:file_size">103346923</property>
  <property name="kdenlive:file_hash">b91a4fd51280ce2d4419a74756b18ee1</property>
  <property name="kdenlive:audio_max1">182</property>
  <property name="xml">was here</property>
  <property name="meta.media.nb_streams">2</property>
  <property name="meta.media.0.stream.type">video</property>
  <property name="meta.media.0.stream.frame_rate">30</property>
  <property name="meta.media.0.stream.sample_aspect_ratio">1</property>
  <property name="meta.media.0.codec.width">1600</property>
  <property name="meta.media.0.codec.height">900</property>
  <property name="meta.media.0.codec.rotate">0</property>
  <property name="meta.media.0.codec.pix_fmt">yuv420p</property>
  <property name="meta.media.0.codec.sample_aspect_ratio">1</property>
  <property name="meta.media.0.codec.colorspace">709</property>
  <property name="meta.media.0.codec.color_trc">1</property>
  <property name="meta.media.0.codec.name">h264</property>
  <property name="meta.media.0.codec.long_name">H.264 / AVC / MPEG-4 AVC / MPEG-4 part 10</property>
  <property name="meta.media.0.codec.bit_rate">1152878</property>
  <property name="meta.attr.0.stream.handler_name.markup">VideoHandler</property>
  <property name="meta.media.1.stream.type">audio</property>
  <property name="meta.media.1.codec.sample_fmt">fltp</property>
  <property name="meta.media.1.codec.sample_rate">48000</property>
  <property name="meta.media.1.codec.channels">2</property>
  <property name="meta.media.1.codec.name">aac</property>
  <property name="meta.media.1.codec.long_name">AAC (Advanced Audio Coding)</property>
  <property name="meta.media.1.codec.bit_rate">240218</property>
  <property name="meta.attr.1.stream.handler_name.markup">SoundHandler</property>
  <property name="meta.attr.major_brand.markup">isom</property>
  <property name="meta.attr.minor_version.markup">512</property>
  <property name="meta.attr.compatible_brands.markup">isomiso2avc1mp41</property>
  <property name="meta.attr.encoder.markup">Lavf58.29.100</property>
  <property name="meta.media.sample_aspect_num">1</property>
  <property name="meta.media.sample_aspect_den">1</property>
  <property name="meta.media.frame_rate_num">30</property>
  <property name="meta.media.frame_rate_den">1</property>
  <property name="meta.media.colorspace">709</property>
  <property name="meta.media.color_trc">1</property>
  <property name="meta.media.has_b_frames">2</property>
  <property name="meta.media.width">1600</property>
  <property name="meta.media.height">900</property>
  <property name="meta.media.color_range">mpeg</property>
  <property name="meta.media.top_field_first">0</property>
  <property name="meta.media.progressive">1</property>
  <property name="set.test_audio">0</property>
  <property name="set.test_image">1</property>
 </producer>
 <playlist id="playlist2">
  <property name="kdenlive:audio_track">1</property>
  <entry producer="producer3" in="00:00:00.000" out="00:00:02.967">
   <property name="kdenlive:id">3</property>
  </entry>
  <entry producer="producer4" in="00:00:06.067" out="00:00:14.800">
   <property name="kdenlive:id">2</property>
  </entry>
  <entry producer="producer4" in="00:00:20.133" out="00:00:24.500">
   <property name="kdenlive:id">2</property>
  </entry>
  <entry producer="producer4" in="00:00:25.267" out="00:00:26.833">
   <property name="kdenlive:id">2</property>
  </entry>
  <entry producer="producer4" in="00:00:27.567" out="00:00:28.367">
   <property name="kdenlive:id">2</property>
  </entry>
  <entry producer="producer4" in="00:00:28.833" out="00:00:29.733">
   <property name="kdenlive:id">2</property>
  </entry>
  <entry producer="producer4" in="00:00:31.300" out="00:00:37.433">
   <property name="kdenlive:id">2</property>
  </entry>
  <entry producer="producer4" in="00:00:39.867" out="00:00:41.367">
   <property name="kdenlive:id">2</property>
  </entry>
  <entry producer="producer4" in="00:00:42.600" out="00:00:43.933">
   <property name="kdenlive:id">2</property>
  </entry>
  <entry producer="producer4" in="00:00:44.367" out="00:00:48.633">
   <property name="kdenlive:id">2</property>
  </entry>
  <entry producer="producer4" in="00:01:00.133" out="00:01:03.933">
   <property name="kdenlive:id">2</property>
  </entry>
  <entry producer="producer4" in="00:01:04.967" out="00:01:08.400">
   <property name="kdenlive:id">2</property>
  </entry>
  <entry producer="producer4" in="00:01:13.100" out="00:01:17.967">
   <property name="kdenlive:id">2</property>
  </entry>
  <entry producer="producer4" in="00:01:22.033" out="00:02:06.267">
   <property name="kdenlive:id">2</property>
  </entry>
  <entry producer="producer4" in="00:02:07.167" out="00:02:54.633">
   <property name="kdenlive:id">2</property>
  </entry>
  <entry producer="producer4" in="00:02:55.700" out="00:02:57.300">
   <property name="kdenlive:id">2</property>
  </entry>
  <entry producer="producer4" in="00:02:57.900" out="00:03:00.300">
   <property name="kdenlive:id">2</property>
  </entry>
  <entry producer="producer4" in="00:03:06.833" out="00:03:14.267">
   <property name="kdenlive:id">2</property>
  </entry>
  <entry producer="producer4" in="00:03:15.267" out="00:03:42.600">
   <property name="kdenlive:id">2</property>
  </entry>
  <entry producer="producer4" in="00:03:50.900" out="00:03:53.367">
   <property name="kdenlive:id">2</property>
  </entry>
  <entry producer="producer4" in="00:03:56.167" out="00:04:02.033">
   <property name="kdenlive:id">2</property>
  </entry>
  <entry producer="producer4" in="00:04:07.767" out="00:05:24.767">
   <property name="kdenlive:id">2</property>
  </entry>
  <entry producer="producer4" in="00:05:37.000" out="00:05:39.433">
   <property name="kdenlive:id">2</property>
  </entry>
  <entry producer="producer4" in="00:05:40.067" out="00:05:41.133">
   <property name="kdenlive:id">2</property>
  </entry>
  <entry producer="producer4" in="00:05:43.067" out="00:05:50.767">
   <property name="kdenlive:id">2</property>
  </entry>
  <entry producer="producer4" in="00:07:21.933" out="00:07:29.333">
   <property name="kdenlive:id">2</property>
  </entry>
  <entry producer="producer4" in="00:07:33.533" out="00:07:44.500">
   <property name="kdenlive:id">2</property>
  </entry>
  <entry producer="producer4" in="00:07:57.467" out="00:08:12.533">
   <property name="kdenlive:id">2</property>
  </entry>
  <entry producer="producer4" in="00:08:13.967" out="00:09:18.933">
   <property name="kdenlive:id">2</property>
  </entry>
  <entry producer="producer4" in="00:09:19.833" out="00:09:21.733">
   <property name="kdenlive:id">2</property>
  </entry>
  <entry producer="producer4" in="00:09:22.233" out="00:09:24.533">
   <property name="kdenlive:id">2</property>
  </entry>
  <entry producer="producer4" in="00:09:26.400" out="00:09:29.233">
   <property name="kdenlive:id">2</property>
  </entry>
  <entry producer="producer4" in="00:09:34.667" out="00:09:45.600">
   <property name="kdenlive:id">2</property>
  </entry>
  <entry producer="producer4" in="00:09:55.867" out="00:10:14.500">
   <property name="kdenlive:id">2</property>
  </entry>
  <entry producer="producer4" in="00:10:19.667" out="00:10:21.733">
   <property name="kdenlive:id">2</property>
  </entry>
  <entry producer="producer4" in="00:10:27.967" out="00:10:40.000">
   <property name="kdenlive:id">2</property>
  </entry>
  <entry producer="producer4" in="00:10:44.733" out="00:11:05.667">
   <property name="kdenlive:id">2</property>
  </entry>
  <entry producer="producer4" in="00:11:13.000" out="00:11:19.900">
   <property name="kdenlive:id">2</property>
  </entry>
  <entry producer="producer4" in="00:11:28.667" out="00:11:32.133">
   <property name="kdenlive:id">2</property>
  </entry>
  <entry producer="producer4" in="00:11:34.867" out="00:12:37.600">
   <property name="kdenlive:id">2</property>
  </entry>
  <entry producer="producer4" in="00:12:37.967" out="00:12:39.033">
   <property name="kdenlive:id">2</property>
  </entry>
  <entry producer="producer4" in="00:12:39.600" out="00:12:42.700">
   <property name="kdenlive:id">2</property>
  </entry>
  <entry producer="producer4" in="00:12:44.133" out="00:12:48.533">
   <property name="kdenlive:id">2</property>
  </entry>
  <entry producer="producer5" in="00:09:46.700" out="00:09:49.933">
   <property name="kdenlive:id">4</property>
  </entry>
 </playlist>
 <playlist id="playlist3">
  <property name="kdenlive:audio_track">1</property>
 </playlist>
 <tractor id="tractor1" in="00:00:00.000" out="00:08:48.033">
  <property name="kdenlive:audio_track">1</property>
  <property name="kdenlive:trackheight">69</property>
  <property name="kdenlive:timeline_active">1</property>
  <property name="kdenlive:collapsed">0</property>
  <property name="kdenlive:thumbs_format"/>
  <property name="kdenlive:audio_rec"/>
  <track hide="video" producer="playlist2"/>
  <track hide="video" producer="playlist3"/>
  <filter id="filter3">
   <property name="window">75</property>
   <property name="max_gain">20dB</property>
   <property name="mlt_service">volume</property>
   <property name="internal_added">237</property>
   <property name="disable">1</property>
  </filter>
  <filter id="filter4">
   <property name="channel">-1</property>
   <property name="mlt_service">panner</property>
   <property name="internal_added">237</property>
   <property name="start">0.5</property>
   <property name="disable">1</property>
  </filter>
  <filter id="filter5">
   <property name="iec_scale">0</property>
   <property name="mlt_service">audiolevel</property>
   <property name="disable">1</property>
  </filter>
 </tractor>
 <producer id="producer6" in="00:00:00.000" out="00:00:05.000">
  <property name="length">151</property>
  <property name="eof">pause</property>
  <property name="resource">introducao.mp4</property>
  <property name="audio_index">1</property>
  <property name="video_index">0</property>
  <property name="mute_on_pause">0</property>
  <property name="mlt_service">avformat-novalidate</property>
  <property name="seekable">1</property>
  <property name="aspect_ratio">1</property>
  <property name="kdenlive:clipname"/>
  <property name="kdenlive:folderid">-1</property>
  <property name="kdenlive:file_size">363706</property>
  <property name="kdenlive:id">3</property>
  <property name="kdenlive:file_hash">b9145557863b8d60094434d669dab2cb</property>
  <property name="kdenlive:audio_max1">185</property>
  <property name="xml">was here</property>
  <property name="meta.media.nb_streams">2</property>
  <property name="meta.media.0.stream.type">video</property>
  <property name="meta.media.0.stream.frame_rate">25</property>
  <property name="meta.media.0.stream.sample_aspect_ratio">1</property>
  <property name="meta.media.0.codec.width">1920</property>
  <property name="meta.media.0.codec.height">1080</property>
  <property name="meta.media.0.codec.rotate">0</property>
  <property name="meta.media.0.codec.pix_fmt">yuv420p</property>
  <property name="meta.media.0.codec.sample_aspect_ratio">1</property>
  <property name="meta.media.0.codec.colorspace">709</property>
  <property name="meta.media.0.codec.color_trc">1</property>
  <property name="meta.media.0.codec.name">h264</property>
  <property name="meta.media.0.codec.long_name">H.264 / AVC / MPEG-4 AVC / MPEG-4 part 10</property>
  <property name="meta.media.0.codec.bit_rate">550179</property>
  <property name="meta.attr.0.stream.handler_name.markup">VideoHandler</property>
  <property name="meta.media.1.stream.type">audio</property>
  <property name="meta.media.1.codec.sample_fmt">fltp</property>
  <property name="meta.media.1.codec.sample_rate">48000</property>
  <property name="meta.media.1.codec.channels">2</property>
  <property name="meta.media.1.codec.name">aac</property>
  <property name="meta.media.1.codec.long_name">AAC (Advanced Audio Coding)</property>
  <property name="meta.media.1.codec.bit_rate">23637</property>
  <property name="meta.attr.1.stream.handler_name.markup">SoundHandler</property>
  <property name="meta.attr.major_brand.markup">isom</property>
  <property name="meta.attr.minor_version.markup">512</property>
  <property name="meta.attr.compatible_brands.markup">isomiso2avc1mp41</property>
  <property name="meta.attr.encoder.markup">Lavf58.29.100</property>
  <property name="meta.media.sample_aspect_num">1</property>
  <property name="meta.media.sample_aspect_den">1</property>
  <property name="meta.media.frame_rate_num">25</property>
  <property name="meta.media.frame_rate_den">1</property>
  <property name="meta.media.colorspace">709</property>
  <property name="meta.media.color_trc">1</property>
  <property name="meta.media.has_b_frames">2</property>
  <property name="meta.media.width">1920</property>
  <property name="meta.media.height">1080</property>
  <property name="meta.media.color_range">mpeg</property>
  <property name="meta.media.top_field_first">0</property>
  <property name="meta.media.progressive">1</property>
  <property name="set.test_audio">1</property>
  <property name="set.test_image">0</property>
 </producer>
 <producer id="producer7" in="00:00:00.000" out="00:12:57.867">
  <property name="length">23337</property>
  <property name="eof">pause</property>
  <property name="resource">/home/alex/VÃ­deos/obs/2021-12-10 06-42-31.mkv</property>
  <property name="audio_index">1</property>
  <property name="video_index">0</property>
  <property name="mute_on_pause">0</property>
  <property name="mlt_service">avformat-novalidate</property>
  <property name="seekable">1</property>
  <property name="aspect_ratio">1</property>
  <property name="kdenlive:clipname"/>
  <property name="kdenlive:folderid">-1</property>
  <property name="kdenlive:id">2</property>
  <property name="kdenlive:file_size">34506290</property>
  <property name="kdenlive:file_hash">e77a0c661772dfc2056ecd7b41c27b4c</property>
  <property name="xml">was here</property>
  <property name="meta.media.nb_streams">2</property>
  <property name="meta.media.0.stream.type">video</property>
  <property name="meta.media.0.stream.frame_rate">30</property>
  <property name="meta.media.0.stream.sample_aspect_ratio">0</property>
  <property name="meta.media.0.codec.width">1600</property>
  <property name="meta.media.0.codec.height">900</property>
  <property name="meta.media.0.codec.rotate">0</property>
  <property name="meta.media.0.codec.pix_fmt">yuv420p</property>
  <property name="meta.media.0.codec.sample_aspect_ratio">1</property>
  <property name="meta.media.0.codec.colorspace">709</property>
  <property name="meta.media.0.codec.color_trc">1</property>
  <property name="meta.media.0.codec.name">h264</property>
  <property name="meta.media.0.codec.long_name">H.264 / AVC / MPEG-4 AVC / MPEG-4 part 10</property>
  <property name="meta.media.0.codec.bit_rate">0</property>
  <property name="meta.attr.0.stream.DURATION.markup">00:12:57.900000000</property>
  <property name="meta.media.1.stream.type">audio</property>
  <property name="meta.media.1.codec.sample_fmt">fltp</property>
  <property name="meta.media.1.codec.sample_rate">48000</property>
  <property name="meta.media.1.codec.channels">2</property>
  <property name="meta.media.1.codec.name">aac</property>
  <property name="meta.media.1.codec.long_name">AAC (Advanced Audio Coding)</property>
  <property name="meta.media.1.codec.bit_rate">0</property>
  <property name="meta.attr.1.stream.title.markup">simple_aac_recording</property>
  <property name="meta.attr.1.stream.DURATION.markup">00:12:57.792000000</property>
  <property name="meta.attr.ENCODER.markup">Lavf58.45.100</property>
  <property name="meta.media.sample_aspect_num">1</property>
  <property name="meta.media.sample_aspect_den">1</property>
  <property name="meta.media.frame_rate_num">30</property>
  <property name="meta.media.frame_rate_den">1</property>
  <property name="meta.media.colorspace">709</property>
  <property name="meta.media.color_trc">1</property>
  <property name="meta.media.has_b_frames">2</property>
  <property name="meta.media.width">1600</property>
  <property name="meta.media.height">900</property>
  <property name="meta.media.color_range">mpeg</property>
  <property name="meta.media.top_field_first">0</property>
  <property name="meta.media.progressive">1</property>
  <property name="set.test_audio">1</property>
  <property name="set.test_image">0</property>
 </producer>
 <producer id="producer8" in="00:00:00.000" out="00:09:49.933">
  <property name="length">17699</property>
  <property name="eof">pause</property>
  <property name="resource">/home/alex/Godot/Projetos/TutorialEndlessRunner/Videos/01/Tutorial Godot Game Engine Endless Runner.mp4</property>
  <property name="audio_index">1</property>
  <property name="video_index">0</property>
  <property name="mute_on_pause">0</property>
  <property name="mlt_service">avformat-novalidate</property>
  <property name="seekable">1</property>
  <property name="aspect_ratio">1</property>
  <property name="kdenlive:clipname"/>
  <property name="kdenlive:folderid">-1</property>
  <property name="kdenlive:id">4</property>
  <property name="kdenlive:file_size">103346923</property>
  <property name="kdenlive:file_hash">b91a4fd51280ce2d4419a74756b18ee1</property>
  <property name="kdenlive:audio_max1">182</property>
  <property name="xml">was here</property>
  <property name="meta.media.nb_streams">2</property>
  <property name="meta.media.0.stream.type">video</property>
  <property name="meta.media.0.stream.frame_rate">30</property>
  <property name="meta.media.0.stream.sample_aspect_ratio">1</property>
  <property name="meta.media.0.codec.width">1600</property>
  <property name="meta.media.0.codec.height">900</property>
  <property name="meta.media.0.codec.rotate">0</property>
  <property name="meta.media.0.codec.pix_fmt">yuv420p</property>
  <property name="meta.media.0.codec.sample_aspect_ratio">1</property>
  <property name="meta.media.0.codec.colorspace">709</property>
  <property name="meta.media.0.codec.color_trc">1</property>
  <property name="meta.media.0.codec.name">h264</property>
  <property name="meta.media.0.codec.long_name">H.264 / AVC / MPEG-4 AVC / MPEG-4 part 10</property>
  <property name="meta.media.0.codec.bit_rate">1152878</property>
  <property name="meta.attr.0.stream.handler_name.markup">VideoHandler</property>
  <property name="meta.media.1.stream.type">audio</property>
  <property name="meta.media.1.codec.sample_fmt">fltp</property>
  <property name="meta.media.1.codec.sample_rate">48000</property>
  <property name="meta.media.1.codec.channels">2</property>
  <property name="meta.media.1.codec.name">aac</property>
  <property name="meta.media.1.codec.long_name">AAC (Advanced Audio Coding)</property>
  <property name="meta.media.1.codec.bit_rate">240218</property>
  <property name="meta.attr.1.stream.handler_name.markup">SoundHandler</property>
  <property name="meta.attr.major_brand.markup">isom</property>
  <property name="meta.attr.minor_version.markup">512</property>
  <property name="meta.attr.compatible_brands.markup">isomiso2avc1mp41</property>
  <property name="meta.attr.encoder.markup">Lavf58.29.100</property>
  <property name="meta.media.sample_aspect_num">1</property>
  <property name="meta.media.sample_aspect_den">1</property>
  <property name="meta.media.frame_rate_num">30</property>
  <property name="meta.media.frame_rate_den">1</property>
  <property name="meta.media.colorspace">709</property>
  <property name="meta.media.color_trc">1</property>
  <property name="meta.media.has_b_frames">2</property>
  <property name="meta.media.width">1600</property>
  <property name="meta.media.height">900</property>
  <property name="meta.media.color_range">mpeg</property>
  <property name="meta.media.top_field_first">0</property>
  <property name="meta.media.progressive">1</property>
  <property name="set.test_audio">1</property>
  <property name="set.test_image">0</property>
 </producer>
 <playlist id="playlist4">
  <entry producer="producer6" in="00:00:00.000" out="00:00:02.967">
   <property name="kdenlive:id">3</property>
  </entry>
  <entry producer="producer7" in="00:00:06.067" out="00:00:14.800">
   <property name="kdenlive:id">2</property>
  </entry>
  <entry producer="producer7" in="00:00:20.133" out="00:00:24.500">
   <property name="kdenlive:id">2</property>
  </entry>
  <entry producer="producer7" in="00:00:25.267" out="00:00:26.833">
   <property name="kdenlive:id">2</property>
  </entry>
  <entry producer="producer7" in="00:00:27.567" out="00:00:28.367">
   <property name="kdenlive:id">2</property>
  </entry>
  <entry producer="producer7" in="00:00:28.833" out="00:00:29.733">
   <property name="kdenlive:id">2</property>
  </entry>
  <entry producer="producer7" in="00:00:31.300" out="00:00:37.433">
   <property name="kdenlive:id">2</property>
  </entry>
  <entry producer="producer7" in="00:00:39.867" out="00:00:41.367">
   <property name="kdenlive:id">2</property>
  </entry>
  <entry producer="producer7" in="00:00:42.600" out="00:00:43.933">
   <property name="kdenlive:id">2</property>
  </entry>
  <entry producer="producer7" in="00:00:44.367" out="00:00:48.633">
   <property name="kdenlive:id">2</property>
  </entry>
  <entry producer="producer7" in="00:01:00.133" out="00:01:03.933">
   <property name="kdenlive:id">2</property>
  </entry>
  <entry producer="producer7" in="00:01:04.967" out="00:01:08.400">
   <property name="kdenlive:id">2</property>
  </entry>
  <entry producer="producer7" in="00:01:13.100" out="00:01:17.967">
   <property name="kdenlive:id">2</property>
  </entry>
  <entry producer="producer7" in="00:01:22.033" out="00:02:06.267">
   <property name="kdenlive:id">2</property>
  </entry>
  <entry producer="producer7" in="00:02:07.167" out="00:02:54.633">
   <property name="kdenlive:id">2</property>
  </entry>
  <entry producer="producer7" in="00:02:55.700" out="00:02:57.300">
   <property name="kdenlive:id">2</property>
  </entry>
  <entry producer="producer7" in="00:02:57.900" out="00:03:00.300">
   <property name="kdenlive:id">2</property>
  </entry>
  <entry producer="producer7" in="00:03:06.833" out="00:03:14.267">
   <property name="kdenlive:id">2</property>
  </entry>
  <entry producer="producer7" in="00:03:15.267" out="00:03:42.600">
   <property name="kdenlive:id">2</property>
  </entry>
  <entry producer="producer7" in="00:03:50.900" out="00:03:53.367">
   <property name="kdenlive:id">2</property>
  </entry>
  <entry producer="producer7" in="00:03:56.167" out="00:04:02.033">
   <property name="kdenlive:id">2</property>
  </entry>
  <entry producer="producer7" in="00:04:07.767" out="00:05:24.767">
   <property name="kdenlive:id">2</property>
  </entry>
  <entry producer="producer7" in="00:05:37.000" out="00:05:39.433">
   <property name="kdenlive:id">2</property>
  </entry>
  <entry producer="producer7" in="00:05:40.067" out="00:05:41.133">
   <property name="kdenlive:id">2</property>
  </entry>
  <entry producer="producer7" in="00:05:43.067" out="00:05:50.767">
   <property name="kdenlive:id">2</property>
  </entry>
  <entry producer="producer7" in="00:07:21.933" out="00:07:29.333">
   <property name="kdenlive:id">2</property>
  </entry>
  <entry producer="producer7" in="00:07:33.533" out="00:07:44.500">
   <property name="kdenlive:id">2</property>
  </entry>
  <entry producer="producer7" in="00:07:57.467" out="00:08:12.533">
   <property name="kdenlive:id">2</property>
  </entry>
  <entry producer="producer7" in="00:08:13.967" out="00:09:18.933">
   <property name="kdenlive:id">2</property>
  </entry>
  <entry producer="producer7" in="00:09:19.833" out="00:09:21.733">
   <property name="kdenlive:id">2</property>
  </entry>
  <entry producer="producer7" in="00:09:22.233" out="00:09:24.533">
   <property name="kdenlive:id">2</property>
  </entry>
  <entry producer="producer7" in="00:09:26.400" out="00:09:29.233">
   <property name="kdenlive:id">2</property>
  </entry>
  <entry producer="producer7" in="00:09:34.667" out="00:09:45.600">
   <property name="kdenlive:id">2</property>
  </entry>
  <entry producer="producer7" in="00:09:55.867" out="00:10:14.500">
   <property name="kdenlive:id">2</property>
  </entry>
  <entry producer="producer7" in="00:10:19.667" out="00:10:21.733">
   <property name="kdenlive:id">2</property>
  </entry>
  <entry producer="producer7" in="00:10:27.967" out="00:10:40.000">
   <property name="kdenlive:id">2</property>
  </entry>
  <entry producer="producer7" in="00:10:44.733" out="00:11:05.667">
   <property name="kdenlive:id">2</property>
  </entry>
  <entry producer="producer7" in="00:11:13.000" out="00:11:19.900">
   <property name="kdenlive:id">2</property>
  </entry>
  <entry producer="producer7" in="00:11:28.667" out="00:11:32.133">
   <property name="kdenlive:id">2</property>
  </entry>
  <entry producer="producer7" in="00:11:34.867" out="00:12:37.600">
   <property name="kdenlive:id">2</property>
  </entry>
  <entry producer="producer7" in="00:12:37.967" out="00:12:39.033">
   <property name="kdenlive:id">2</property>
  </entry>
  <entry producer="producer7" in="00:12:39.600" out="00:12:42.700">
   <property name="kdenlive:id">2</property>
  </entry>
  <entry producer="producer7" in="00:12:44.133" out="00:12:48.533">
   <property name="kdenlive:id">2</property>
  </entry>
  <entry producer="producer8" in="00:09:46.700" out="00:09:49.933">
   <property name="kdenlive:id">4</property>
  </entry>
 </playlist>
 <playlist id="playlist5"/>
 <tractor id="tractor2" in="00:00:00.000" out="00:08:48.033">
  <property name="kdenlive:trackheight">69</property>
  <property name="kdenlive:timeline_active">1</property>
  <property name="kdenlive:collapsed">0</property>
  <property name="kdenlive:thumbs_format"/>
  <property name="kdenlive:audio_rec"/>
  <track hide="audio" producer="playlist4"/>
  <track hide="audio" producer="playlist5"/>
 </tractor>
 <playlist id="playlist6"/>
 <playlist id="playlist7"/>
 <tractor id="tractor3" in="00:00:00.000">
  <property name="kdenlive:trackheight">69</property>
  <property name="kdenlive:timeline_active">0</property>
  <property name="kdenlive:collapsed">0</property>
  <property name="kdenlive:thumbs_format"/>
  <property name="kdenlive:audio_rec"/>
  <track hide="audio" producer="playlist6"/>
  <track hide="audio" producer="playlist7"/>
 </tractor>
 <tractor id="tractor4" in="00:00:00.000" out="00:25:28.067">
  <track producer="black_track"/>
  <track producer="tractor0"/>
  <track producer="tractor1"/>
  <track producer="tractor2"/>
  <track producer="tractor3"/>
  <transition id="transition0">
   <property name="a_track">0</property>
   <property name="b_track">1</property>
   <property name="mlt_service">mix</property>
   <property name="kdenlive_id">mix</property>
   <property name="internal_added">237</property>
   <property name="always_active">1</property>
   <property name="accepts_blanks">1</property>
   <property name="sum">1</property>
  </transition>
  <transition id="transition1">
   <property name="a_track">0</property>
   <property name="b_track">2</property>
   <property name="mlt_service">mix</property>
   <property name="kdenlive_id">mix</property>
   <property name="internal_added">237</property>
   <property name="always_active">1</property>
   <property name="accepts_blanks">1</property>
   <property name="sum">1</property>
  </transition>
  <transition id="transition2">
   <property name="a_track">0</property>
   <property name="b_track">3</property>
   <property name="compositing">0</property>
   <property name="distort">0</property>
   <property name="rotate_center">0</property>
   <property name="mlt_service">qtblend</property>
   <property name="kdenlive_id">qtblend</property>
   <property name="internal_added">237</property>
   <property name="always_active">1</property>
  </transition>
  <transition id="transition3">
   <property name="a_track">0</property>
   <property name="b_track">4</property>
   <property name="compositing">0</property>
   <property name="distort">0</property>
   <property name="rotate_center">0</property>
   <property name="mlt_service">qtblend</property>
   <property name="kdenlive_id">qtblend</property>
   <property name="internal_added">237</property>
   <property name="always_active">1</property>
  </transition>
  <filter id="filter6">
   <property name="window">75</property>
   <property name="max_gain">20dB</property>
   <property name="mlt_service">volume</property>
   <property name="internal_added">237</property>
   <property name="disable">1</property>
  </filter>
  <filter id="filter7">
   <property name="channel">-1</property>
   <property name="mlt_service">panner</property>
   <property name="internal_added">237</property>
   <property name="start">0.5</property>
   <property name="disable">1</property>
  </filter>
  <filter id="filter8">
   <property name="iec_scale">0</property>
   <property name="mlt_service">audiolevel</property>
   <property name="disable">1</property>
  </filter>
 </tractor>
</mlt>
